<?xml version="1.0" encoding="utf-8"?>
<!-- Generator: Adobe Illustrator 19.0.0, SVG Export Plug-In . SVG Version: 6.00 Build 0)  -->
<svg version="1.1" xmlns="http://www.w3.org/2000/svg" xmlns:xlink="http://www.w3.org/1999/xlink" x="0px" y="0px"
	 viewBox="0 0 360 129.3" style="enable-background:new 0 0 360 129.3;" xml:space="preserve">
<style type="text/css">
	.st0{fill:#B38850;}
	.st1{opacity:0.5;fill:url(#XMLID_150_);}
	.st2{opacity:0.5;fill:url(#XMLID_151_);}
	.st3{opacity:0.5;fill:url(#XMLID_152_);}
	.st4{opacity:0.5;fill:url(#XMLID_153_);}
	.st5{opacity:0.5;fill:url(#XMLID_154_);}
	.st6{opacity:0.5;fill:url(#XMLID_155_);}
	.st7{fill:#751113;}
	.st8{opacity:0.65;fill:url(#XMLID_156_);}
	.st9{opacity:0.65;fill:url(#XMLID_157_);}
	.st10{opacity:0.65;fill:url(#XMLID_158_);}
	.st11{opacity:0.65;fill:url(#XMLID_159_);}
	.st12{display:none;}
	.st13{display:inline;stroke:#000000;stroke-miterlimit:10;}
</style>
<g id="Calque_1">
	<path id="XMLID_12_" class="st0" d="M44.1,6.4v7.8c-4-3.6-8.8-5.3-14.3-5.3c-6,0-11.1,2.2-15.2,6.5c-4.2,4.3-6.2,9.6-6.2,15.7
		c0,6,2.1,11.2,6.2,15.5c4.1,4.3,9.2,6.5,15.2,6.5c5.5,0,10.3-1.9,14.5-5.6v8c-4.3,2.5-9.1,3.8-14.3,3.8c-7.8,0-14.4-2.7-20-8.1
		c-5.5-5.4-8.3-12-8.3-19.9c0-8,2.8-14.8,8.4-20.3c5.6-5.5,12.4-8.3,20.4-8.3C35.6,2.8,40.1,4,44.1,6.4z"/>
	<radialGradient id="XMLID_150_" cx="15.3561" cy="54.8232" r="25.0332" gradientUnits="userSpaceOnUse">
		<stop  offset="0" style="stop-color:#FFFFFF"/>
		<stop  offset="1" style="stop-color:#FFFFFF;stop-opacity:0"/>
	</radialGradient>
	<path id="XMLID_1_" class="st1" d="M44.1,6.4v7.8c-4-3.6-8.8-5.3-14.3-5.3c-6,0-11.1,2.2-15.2,6.5c-4.2,4.3-6.2,9.6-6.2,15.7
		c0,6,2.1,11.2,6.2,15.5c4.1,4.3,9.2,6.5,15.2,6.5c5.5,0,10.3-1.9,14.5-5.6v8c-4.3,2.5-9.1,3.8-14.3,3.8c-7.8,0-14.4-2.7-20-8.1
		c-5.5-5.4-8.3-12-8.3-19.9c0-8,2.8-14.8,8.4-20.3c5.6-5.5,12.4-8.3,20.4-8.3C35.6,2.8,40.1,4,44.1,6.4z"/>
	<path id="XMLID_14_" class="st0" d="M73.1,3.9v54.3h-6.8V3.9H73.1z"/>
	<radialGradient id="XMLID_151_" cx="69.7636" cy="31.0732" r="19.3423" gradientUnits="userSpaceOnUse">
		<stop  offset="0" style="stop-color:#FFFFFF"/>
		<stop  offset="1" style="stop-color:#FFFFFF;stop-opacity:0"/>
	</radialGradient>
	<path id="XMLID_26_" class="st2" d="M73.1,3.9v54.3h-6.8V3.9H73.1z"/>
	<path id="XMLID_16_" class="st0" d="M97.1,58.2V1.3L137.8,44V3.9h6.8v56.5l-40.8-42.7v40.5H97.1z"/>
	<radialGradient id="XMLID_152_" cx="120.8114" cy="30.8933" r="26.815" gradientUnits="userSpaceOnUse">
		<stop  offset="0" style="stop-color:#FFFFFF"/>
		<stop  offset="1" style="stop-color:#FFFFFF;stop-opacity:0"/>
	</radialGradient>
	<path id="XMLID_28_" class="st3" d="M97.1,58.2V1.3L137.8,44V3.9h6.8v56.5l-40.8-42.7v40.5H97.1z"/>
	<path id="XMLID_18_" class="st0" d="M168.6,58.2V3.9h29.2v6.2h-22.4v15.2h21.7v6.2h-21.7V52h22.4v6.2H168.6z"/>
	<radialGradient id="XMLID_153_" cx="183.5317" cy="31.0732" r="21.7872" gradientUnits="userSpaceOnUse">
		<stop  offset="0" style="stop-color:#FFFFFF"/>
		<stop  offset="1" style="stop-color:#FFFFFF;stop-opacity:0"/>
	</radialGradient>
	<path id="XMLID_2_" class="st4" d="M168.6,58.2V3.9h29.2v6.2h-22.4v15.2h21.7v6.2h-21.7V52h22.4v6.2H168.6z"/>
	<path id="XMLID_20_" class="st0" d="M246,59.4l-16.3-37h-0.1l-6.3,35.9h-7l11.1-56.6L246,44.4l18.6-42.8l11.1,56.6h-7l-6.3-35.9
		h-0.1L246,59.4z"/>
	<radialGradient id="XMLID_154_" cx="246.0182" cy="38.4973" r="29.3073" gradientUnits="userSpaceOnUse">
		<stop  offset="0" style="stop-color:#FFFFFF"/>
		<stop  offset="1" style="stop-color:#FFFFFF;stop-opacity:0"/>
	</radialGradient>
	<path id="XMLID_31_" class="st5" d="M246,59.4l-16.3-37h-0.1l-6.3,35.9h-7l11.1-56.6L246,44.4l18.6-42.8l11.1,56.6h-7l-6.3-35.9
		h-0.1L246,59.4z"/>
	<path id="XMLID_22_" class="st0" d="M328.8,44.6h-24.9l-6.2,13.6h-7.3l25.9-56.6l25.9,56.6H335L328.8,44.6z M326,38.4l-9.6-22
		l-9.6,22H326z"/>
	<radialGradient id="XMLID_155_" cx="316.362" cy="29.9214" r="27.1339" gradientUnits="userSpaceOnUse">
		<stop  offset="0" style="stop-color:#FFFFFF"/>
		<stop  offset="1" style="stop-color:#FFFFFF;stop-opacity:0"/>
	</radialGradient>
	<path id="XMLID_33_" class="st6" d="M328.8,44.6h-24.9l-6.2,13.6h-7.3l25.9-56.6l25.9,56.6H335L328.8,44.6z M326,38.4l-9.6-22
		l-9.6,22H326z"/>
</g>
<g id="Calque_2">
	<path id="XMLID_5_" class="st7" d="M219.3,77.4v48.1h-6.8V77.4h-12.9v-6.2h32.5v6.2H219.3z"/>
	<radialGradient id="XMLID_156_" cx="204.2852" cy="74.3047" r="22.3785" gradientUnits="userSpaceOnUse">
		<stop  offset="0" style="stop-color:#ED1C24"/>
		<stop  offset="1" style="stop-color:#ED1C24;stop-opacity:0"/>
	</radialGradient>
	<path id="XMLID_36_" class="st8" d="M219.3,77.4v48.1h-6.8V77.4h-12.9v-6.2h32.5v6.2H219.3z"/>
	<path id="XMLID_7_" class="st7" d="M252,125.4V71.2h29.2v6.2h-22.4v15.2h21.7v6.2h-21.7v20.5h22.4v6.2H252z"/>
	<radialGradient id="XMLID_157_" cx="257.2809" cy="118.0547" r="21.7874" gradientUnits="userSpaceOnUse">
		<stop  offset="0" style="stop-color:#ED1C24"/>
		<stop  offset="1" style="stop-color:#ED1C24;stop-opacity:0"/>
	</radialGradient>
	<path id="XMLID_4_" class="st9" d="M252,125.4V71.2h29.2v6.2h-22.4v15.2h21.7v6.2h-21.7v20.5h22.4v6.2H252z"/>
	<path id="XMLID_9_" class="st7" d="M356.9,126.6h-8.2l-4.7-4.8c-4.7,3.2-9.8,4.8-15.5,4.8c-7.9,0-14.6-2.7-20.2-8.1
		c-5.5-5.4-8.3-12.1-8.3-20.2c0-7.8,2.8-14.4,8.4-20s12.3-8.3,20.1-8.3c7.8,0,14.5,2.8,20.1,8.3c5.6,5.5,8.4,12.2,8.4,20
		c0,3.8-0.7,7.5-2.2,11c-1.5,3.5-3.6,6.5-6.3,9L356.9,126.6z M335.3,105l8.6,8.5c2-1.8,3.6-4.1,4.7-6.9c1.1-2.8,1.7-5.6,1.7-8.3
		c0-6.1-2.1-11.3-6.2-15.6c-4.1-4.3-9.3-6.4-15.5-6.4c-6.2,0-11.4,2.1-15.5,6.4c-4.1,4.3-6.2,9.5-6.2,15.6c0,6.1,2.1,11.3,6.4,15.6
		c4.3,4.2,9.4,6.4,15.3,6.4c3.9,0,7.5-1,10.8-3.1L326.8,105H335.3z"/>
	<radialGradient id="XMLID_158_" cx="312.4875" cy="79.5552" r="28.368" gradientUnits="userSpaceOnUse">
		<stop  offset="0" style="stop-color:#ED1C24"/>
		<stop  offset="1" style="stop-color:#ED1C24;stop-opacity:0"/>
	</radialGradient>
	<path id="XMLID_42_" class="st10" d="M356.9,126.6h-8.2l-4.7-4.8c-4.7,3.2-9.8,4.8-15.5,4.8c-7.9,0-14.6-2.7-20.2-8.1
		c-5.5-5.4-8.3-12.1-8.3-20.2c0-7.8,2.8-14.4,8.4-20s12.3-8.3,20.1-8.3c7.8,0,14.5,2.8,20.1,8.3c5.6,5.5,8.4,12.2,8.4,20
		c0,3.8-0.7,7.5-2.2,11c-1.5,3.5-3.6,6.5-6.3,9L356.9,126.6z M335.3,105l8.6,8.5c2-1.8,3.6-4.1,4.7-6.9c1.1-2.8,1.7-5.6,1.7-8.3
		c0-6.1-2.1-11.3-6.2-15.6c-4.1-4.3-9.3-6.4-15.5-6.4c-6.2,0-11.4,2.1-15.5,6.4c-4.1,4.3-6.2,9.5-6.2,15.6c0,6.1,2.1,11.3,6.4,15.6
		c4.3,4.2,9.4,6.4,15.3,6.4c3.9,0,7.5-1,10.8-3.1L326.8,105H335.3z"/>
	<radialGradient id="XMLID_159_" cx="343.7375" cy="116.8052" r="28.368" gradientUnits="userSpaceOnUse">
		<stop  offset="0" style="stop-color:#ED1C24"/>
		<stop  offset="1" style="stop-color:#ED1C24;stop-opacity:0"/>
	</radialGradient>
	<path id="XMLID_39_" class="st11" d="M356.9,126.6h-8.2l-4.7-4.8c-4.7,3.2-9.8,4.8-15.5,4.8c-7.9,0-14.6-2.7-20.2-8.1
		c-5.5-5.4-8.3-12.1-8.3-20.2c0-7.8,2.8-14.4,8.4-20s12.3-8.3,20.1-8.3c7.8,0,14.5,2.8,20.1,8.3c5.6,5.5,8.4,12.2,8.4,20
		c0,3.8-0.7,7.5-2.2,11c-1.5,3.5-3.6,6.5-6.3,9L356.9,126.6z M335.3,105l8.6,8.5c2-1.8,3.6-4.1,4.7-6.9c1.1-2.8,1.7-5.6,1.7-8.3
		c0-6.1-2.1-11.3-6.2-15.6c-4.1-4.3-9.3-6.4-15.5-6.4c-6.2,0-11.4,2.1-15.5,6.4c-4.1,4.3-6.2,9.5-6.2,15.6c0,6.1,2.1,11.3,6.4,15.6
		c4.3,4.2,9.4,6.4,15.3,6.4c3.9,0,7.5-1,10.8-3.1L326.8,105H335.3z"/>
</g>
<g id="Calque_3" class="st12">
	<line id="XMLID_3_" class="st13" x1="312.2" y1="-8" x2="444.2" y2="283.5"/>
</g>
</svg>
